<?xml version="1.0" encoding="utf-8"?>
<svg width="500px" height="500px" viewBox="0 0 500 500" xmlns="http://www.w3.org/2000/svg" xmlns:bx="https://boxy-svg.com">
  <style type="text/css">
    svg {
      -webkit-tap-highlight-color: rgba(0,0,0,0);
    }
  </style>
  <defs>
    <radialGradient id="gradient-0" gradientUnits="userSpaceOnUse" cx="465.086" cy="177.681" r="249.798" gradientTransform="matrix(0.043416, 0.830634, -1.064004, 0.055613, 422.513459, -238.471862)">
      <stop offset="0" style="stop-color: rgb(167, 129, 105);"/>
      <stop offset="1" style="stop-color: rgb(48, 86, 109);"/>
    </radialGradient>
  </defs>
  <rect x="-0.041" y="-0.285" width="499.596" height="327.708" style="fill: url(#gradient-0);"/>
  <path d="M 173.574 121.845 L 504.095 122.478 L 173.107 148.425 L 173.574 121.845 Z" style="fill: rgba(85, 167, 218, 0.207843);" transform="matrix(-1, 0, 0, -1, 677.202019, 270.270027)"/>
  <ellipse cursor="s-resize" id="sun" cx="253.895" cy="157.239" rx="47.963" ry="47.963" style="fill: rgb(215, 157, 120);"/>
  <path d="M -1.989 180.855 L 116.823 190.594 L 257.547 164.786 L 441.609 190.594 C 441.609 190.594 487.381 344.953 486.407 344.953 C 485.433 344.953 2.393 344.465 2.88 343.491 C 3.367 342.517 -2.963 181.342 -1.989 180.855 Z" style="fill: rgb(37, 81, 109);"/>
  <path d="M -2.963 184.264 L 117.797 194.489 L 198.141 220.784 L 275.077 247.565 C 275.077 247.565 348.117 227.601 348.604 227.114 C 349.091 226.627 425.053 194.489 425.54 194.489 C 426.027 194.489 503.45 173.551 503.45 173.551 L 503.937 503.206 C 503.937 503.206 -5.885 502.72 -5.398 502.233 C -4.911 501.746 -2.963 185.725 -2.963 184.264 Z" style="fill: rgb(19, 55, 77);"/>
  <path d="M -1.247 16.79 L 446.821 17.423 L -1.88 43.37 L -1.247 16.79 Z" style="fill: rgba(85, 167, 218, 0.207843);"/>
  <path d="M -1.951 83.873 L 171.842 84.25 L -2.196 99.694 L -1.951 83.873 Z" style="fill: rgba(85, 167, 218, 0.207843);"/>
  <path d="M 183.68 77.545 L 500.298 77.033 L 183.233 56.028 L 183.68 77.545 Z" style="fill: rgba(85, 167, 218, 0.129412);" transform="matrix(-1, 0, 0, -1, 683.531039, 133.57299)"/>
  <path d="M 1.285 364.865 L 163.931 369.295 L 334.804 394.609 L 434.163 435.113 L 503.778 476.249 L 503.778 520.549 L 448.719 520.549 L -0.614 521.182 L 1.285 364.865 Z" style="fill: rgb(50, 89, 111);"/>
  <path d="M 437.011 351.574 L 453.782 454.098 L 420.24 454.098 L 437.011 351.574 Z" style="fill: rgb(11, 39, 56);" bx:shape="triangle 420.24 351.574 33.542 102.524 0.5 0 1@b689f81c"/>
  <path d="M 391.128 351.575 L 406.316 431.316 L 375.939 431.316 L 391.128 351.575 Z" style="fill: rgb(11, 39, 56);" bx:shape="triangle 375.939 351.575 30.377 79.741 0.5 0 1@f55e3111"/>
  <path d="M 6.98 225.001 L 71.532 513.587 L -57.572 513.587 L 6.98 225.001 Z" style="fill: rgb(9, 28, 39);" bx:shape="triangle -57.572 225.001 129.104 288.586 0.5 0 1@f539cb17"/>
  <path d="M 89.886 368.029 L 122.162 419.924 L 161.399 438.91 L 205.7 493.336 L 253.164 513.588 L 515.803 505.993 L 506.31 478.78 L 389.863 460.427 L 325.311 460.427 L 284.175 415.494 L 220.888 413.595 L 191.777 393.344 L 148.109 388.913 L 117.099 368.662 L 89.886 368.029 Z" style="fill: rgb(70, 94, 109);"/>
  <path d="M 304.349 359.169 L 314.08 418.658 L 294.617 418.658 L 304.349 359.169 Z" style="fill: rgb(11, 39, 56);" bx:shape="triangle 294.617 359.169 19.463 59.489 0.5 0 1@d1978176"/>
  <path d="M 149.058 389.869 L 162.981 474.983 L 135.135 474.983 L 149.058 389.869 Z" style="fill: rgb(11, 39, 56);" bx:shape="triangle 135.135 389.869 27.846 85.114 0.5 0 1@44d746c7"/>
  <path d="M 344.93 385.893 L 353.396 437.645 L 336.464 437.645 L 344.93 385.893 Z" style="fill: rgb(11, 39, 56);" bx:shape="triangle 336.464 385.893 16.932 51.752 0.5 0 1@d078862b"/>
  <path d="M 281.643 352.912 L 290.109 404.664 L 273.177 404.664 L 281.643 352.912 Z" style="fill: rgb(11, 39, 56);" transform="matrix(1.000001, 0, 0, 1, -27.846239, -0.632874)" bx:shape="triangle 273.177 352.912 16.932 51.752 0.5 0 1@3e40c689"/>
</svg>
